<?xml version="1.0" encoding="iso-8859-1"?>
<!-- Uploaded to: SVG Repo, www.svgrepo.com, Generator: SVG Repo Mixer Tools -->
<svg height="800px" width="800px" version="1.1" id="Layer_1" xmlns="http://www.w3.org/2000/svg" xmlns:xlink="http://www.w3.org/1999/xlink" 
	 viewBox="0 0 392.598 392.598" xml:space="preserve">
<path style="fill:#FFFFFF;" d="M95.483,255.483c0-11.055-8.986-20.04-20.04-20.04s-20.04,8.986-20.04,20.04s8.986,20.04,20.04,20.04
	S95.483,266.537,95.483,255.483z"/>
<g>
	<path style="fill:#56ACE0;" d="M75.572,327.952c-25.859,0-47.515,18.36-52.558,42.731h105.115
		C123.022,346.311,101.366,327.952,75.572,327.952z"/>
	<path style="fill:#56ACE0;" d="M317.091,235.442c-11.055,0-20.04,8.986-20.04,20.04s8.986,20.04,20.04,20.04
		c11.055,0,20.04-8.986,20.04-20.04S328.145,235.442,317.091,235.442z"/>
</g>
<path style="fill:#FFFFFF;" d="M317.091,327.952c-25.859,0-47.515,18.36-52.558,42.731h105.115
	C364.606,346.311,343.014,327.952,317.091,327.952z"/>
<path style="fill:#FFC10D;" d="M197.947,185.277c19.846,0,37.236-12.671,43.248-31.547c2.521-7.564,12.024-10.537,18.295-4.202
	c13.188,13.964,33.875,18.101,51.459,10.343c22.885-10.15,33.228-37.107,23.079-59.992c-8.598-19.394-29.931-30.384-50.683-26.053
	c-5.042,1.034-10.15-1.552-12.218-6.271c-7.176-16.162-19.523-28.897-34.521-36.848v34.715c0,6.012-4.848,10.925-10.925,10.925
	c-6.077,0-10.925-4.848-10.925-10.925V23.079c-4.719-0.84-9.503-1.422-14.352-1.422c-1.681,0-3.297,0.065-5.042,0.129v22.885
	c0,6.012-4.848,10.925-10.925,10.925c-6.012,0-10.925-4.848-10.925-10.925V26.44c-19.782,7.37-36.137,22.562-44.671,42.861
	c-2.263,5.301-8.275,8.016-13.705,6.077c-19.653-6.982-41.438,0.388-53.01,17.778c-13.834,20.881-8.145,49.067,12.735,62.966
	c19.459,12.929,45.253,9.115,60.057-8.792c5.172-6.271,15.838-5.43,18.941,4.202C159.289,171.442,177.325,185.277,197.947,185.277z"
	/>
<g>
	<path style="fill:#194F82;" d="M117.333,255.483c0-23.014-18.747-41.826-41.826-41.826s-41.826,18.747-41.826,41.826
		s18.747,41.826,41.826,41.826S117.333,278.497,117.333,255.483z M55.531,255.483c0-11.055,8.986-20.04,20.04-20.04
		s20.04,8.986,20.04,20.04s-8.986,20.04-20.04,20.04S55.531,266.537,55.531,255.483z"/>
	<path style="fill:#194F82;" d="M275.329,255.483c0,23.014,18.747,41.826,41.826,41.826s41.826-18.747,41.826-41.826
		s-18.747-41.826-41.826-41.826S275.329,232.404,275.329,255.483z M317.091,275.459c-11.055,0-20.04-8.986-20.04-20.04
		c0-11.055,8.986-20.04,20.04-20.04c11.055,0,20.04,8.986,20.04,20.04C337.131,266.537,328.145,275.459,317.091,275.459z"/>
	<path style="fill:#194F82;" d="M317.091,306.166c-25.6,0-48.162,12.8-61.802,32.323h-48.032V206.481
		c20.299-2.78,38.012-14.545,48.356-31.935c18.747,12.347,43.055,14.675,64.194,5.301l0,0
		c33.875-15.063,49.196-54.885,34.133-88.695c-11.572-26.117-38.723-41.891-66.586-39.693C270.028,19.911,236.735,0,200.404,0
		c-36.913,0-70.271,20.234-87.467,52.364c-26.376-5.172-53.657,5.947-68.848,28.832c-20.493,30.836-12.024,72.663,18.877,93.22
		c23.855,15.838,54.303,14.61,76.477-1.422c9.632,17.067,26.505,29.22,45.964,32.905v132.525h-48.162
		c-13.705-19.459-36.267-32.323-61.802-32.323c-41.568,0.065-75.378,33.875-75.378,75.572c0,6.012,4.848,10.925,10.925,10.925
		h129.099c6.012,0,10.925-4.848,10.925-10.925c0-7.434-1.164-14.61-3.168-21.398h96.905c-2.004,6.788-3.168,13.964-3.168,21.398
		c0,6.012,4.848,10.925,10.925,10.925h129.099c6.012,0,10.925-4.848,10.925-10.925C392.598,339.976,358.788,306.166,317.091,306.166
		z M23.014,370.747c5.042-24.436,26.634-42.731,52.558-42.731s47.515,18.36,52.558,42.731H23.014z M135.046,147.459
		c-14.739,17.907-40.598,21.721-60.057,8.792c-20.881-13.834-26.57-42.085-12.735-62.966c11.507-17.39,33.358-24.63,53.01-17.778
		c5.495,1.939,11.442-0.776,13.705-6.077c8.469-20.299,24.824-35.556,44.671-42.861V44.8c0,6.012,4.848,10.925,10.925,10.925
		c6.012,0,10.925-4.848,10.925-10.925V22.109c1.616-0.065,3.297-0.129,5.042-0.129c4.848,0,9.632,0.517,14.352,1.422v42.279
		c0,6.012,4.848,10.925,10.925,10.925s10.925-4.848,10.925-10.925V30.966c14.998,7.952,27.345,20.687,34.521,36.848
		c2.069,4.719,7.176,7.24,12.218,6.271c20.816-4.331,42.085,6.659,50.683,26.053c10.15,22.885-0.259,49.842-23.079,59.992
		c-17.648,7.822-38.271,3.62-51.459-10.343c-6.271-6.335-15.774-3.426-18.295,4.202c-5.947,18.877-23.337,31.547-43.248,31.547
		c-20.558,0-38.659-13.899-43.895-33.745C150.949,142.028,140.218,141.188,135.046,147.459z M264.533,370.747
		c5.042-24.436,26.634-42.731,52.558-42.731s47.515,18.36,52.558,42.731H264.533z"/>
</g>
</svg>